<?xml version="1.0" encoding="utf-8"?>
<!-- Generator: Adobe Illustrator 16.2.0, SVG Export Plug-In . SVG Version: 6.00 Build 0)  -->
<!DOCTYPE svg PUBLIC "-//W3C//DTD SVG 1.1//EN" "http://www.w3.org/Graphics/SVG/1.1/DTD/svg11.dtd">
<svg version="1.1" id="Layer_1" xmlns="http://www.w3.org/2000/svg" xmlns:xlink="http://www.w3.org/1999/xlink" x="0px" y="0px"
	 width="102.141px" height="107.5px" viewBox="0 0 102.141 107.5" enable-background="new 0 0 102.141 107.5" xml:space="preserve">
<path fill="#30955F" d="M51,0.5C15.5,0.5-0.141,24.453-0.141,54S17,107.5,51,107.5s51.141-23.953,51.141-53.5S86.5,0.5,51,0.5z
	 M51,87.5c-18,0-25.263-14.998-25.263-33.5c0-18.501,6.763-33.5,25.263-33.5S76.262,35.499,76.262,54C76.262,72.502,69,87.5,51,87.5
	z"/>
<path fill="#30955F" d="M64.641,87.25c0,0-1.641-0.834-1.641-4.084S63,79,63,79s0.719,0.375,1.344,1.375S64.625,79.531,64.25,79
	C63.953,78.579,63,78.334,63,78.334V69c0,0,0.656,0.406,1.094,1.469c0.438,1.063,0.781,1.906,1.094,1.688
	c0.313-0.218,0.345-1.438,0.345-1.438s0.594,0.312,0.594-0.719s-0.969-1.906-0.969-1.906s1.594,1.875,1.5,0.219
	c-0.095-1.655-2.125-2.125-2.125-2.125s0.676-1,0.502-1.78C64.86,63.626,63,62.906,63,62.906V61c0,0,0.5,1.031,1,0.906
	s0.83-0.625,0.83-0.625s0.014,1.5,0.545,1.969s1.062,0.438,1.062,0.438s0.156,1.062,0.72,1.25c0.562,0.188-0.47,0.625,0.188,1.312
	s1.188,0.719,1.344-0.812c0.156-1.53-0.344-1.844-0.344-1.844S71,65.25,69.938,62.312c-0.655-1.812-3.062-0.625-3.062-0.625
	s-0.18-2-1.125-2.5c-0.946-0.5-2.751,0.25-2.751,0.25V57c0,0,0.625,2.062,1.75,1.812S65.531,57,65.531,57s1.25-0.438,1.78-0.562
	c0.531-0.123,0.688,0.97,1.531,0c0.843-0.969,0.312-2.312,0.312-2.312s1.25-0.531,1.406-1.75s-0.188-1.531-0.188-1.531
	s0.719-0.469,0.625-1.656c-0.095-1.187-1.72-1.344-1.72-1.344s2.031-0.969,0.812-1.531s-1.812-0.404-1.812-0.404
	s0.546-0.175,0.148-1.155s-0.569-1.016-0.569-1.016s1.171,0.481,1.891-0.082c0.719-0.563,0.405-1.094,0.405-1.094
	s4.479-0.062,2.417-2.781c-2.062-2.719-2.761-2.375-2.761-2.375s0.438-0.906-0.188-1.938c-0.626-1.032-1.25-1.344-1.25-1.344
	s0.655-1.844-1.031-1.844c-1.688,0-1.5,0.781-1.844,0.281c-0.345-0.5,0.905-1-0.375-1.844c-1.281-0.844-1.72-1.562-2.5-1.469
	c-0.781,0.093-1.122,1.47-1.685,0.751c-0.562-0.719-0.246-6.136-1-6.062c-0.543,0.053-0.954,6.728-0.954,6.728
	s-1.296,1.084-1.421,0.647s-0.6-2.353-2.155-1.562c-2.095,1.062-0.095,2.125-0.625,2.625c-0.531,0.5-2.721-0.064-3.782,1.374
	c-0.825,1.116,0.562,2.312,0.562,2.312s-1.405,0.188-0.844,1.156c0.562,0.968,1.121,0.599,1.031,1.406
	c-0.125,1.125-0.595,0.5-1.5,1.125c-0.906,0.625-0.938,0.75-0.875,1.688c0.062,0.938,0.405,0.938,0.405,0.938
	s-2.969,0.688-1.7,2.375c0.804,1.069,2.013,0.656,2.013,0.656S49,46.5,49.625,47.188S50.719,49,50.719,49s-2.25,0.875-2.156,1.969
	c0.095,1.094,0.97,1.469,0.97,1.469S48,52.75,48.25,53.312s0.344,0.719,0.438,1.562c0.095,0.843-0.625,1.812-0.03,1.844
	c0.594,0.032,1.655-0.25,1.655-0.25s-0.905,1.438,0.22,2.062s0.844-1.845,0.844-1.845s0.688-1.25,1.625-1.28
	c0.937-0.031,1.125-1.781,1.594-1.125c0.469,0.655-1.062,2.562-1.062,3.25c0,0.688-0.188,2.219-0.188,2.219s-2.25,1.094-1.938,1.844
	c0.312,0.75,0.562,1.75,1.719,1.688c1.157-0.062,1.406-0.312,1.406-0.312s-0.156,0.281,0.5,0.719
	c0.655,0.438,1.594,0.031,1.594,0.031s-0.656,1.812-0.125,2.094c0.531,0.282-0.157,0.688-0.157,0.688s-2.062,0.469-2,1.406
	c0.062,0.937,0.531,1.875,1.156,1.781c0.625-0.095,1.438-2.047,1.438-2.047S57.094,67,57.781,67C58.468,67,58,67,58,67v17
	c0,0,0,1.781-0.5,2.625s-1.344,1.125-1.344,1.125s1.969,1.281,4.188,1.188C62.563,88.846,64.641,87.25,64.641,87.25z"/>
<path fill="#00ACFF" d="M70.438,78.219"/>
</svg>
