<?xml version="1.0" encoding="utf-8"?>
<!-- Generator: Adobe Illustrator 16.2.0, SVG Export Plug-In . SVG Version: 6.00 Build 0)  -->
<!DOCTYPE svg PUBLIC "-//W3C//DTD SVG 1.1//EN" "http://www.w3.org/Graphics/SVG/1.1/DTD/svg11.dtd">
<svg version="1.1" id="Layer_1" xmlns="http://www.w3.org/2000/svg" xmlns:xlink="http://www.w3.org/1999/xlink" x="0px" y="0px"
	 width="63.021px" height="56.219px" viewBox="0 0 63.021 56.219" enable-background="new 0 0 63.021 56.219" xml:space="preserve">
<g>
	<g>
		<defs>
			<rect id="SVGID_1_" x="7.176" y="10.873" width="46.096" height="35.094"/>
		</defs>
		<clipPath id="SVGID_2_">
			<use xlink:href="#SVGID_1_"  overflow="visible"/>
		</clipPath>
		<path clip-path="url(#SVGID_2_)" fill="#30955F" d="M25.975,45.042v-4.166H44.25c2.856,0,4.992-0.765,6.403-2.295
			c1.298-1.406,1.99-3.467,2.097-6.164h0.021v-0.725V19.193v-0.724H52.75c-0.105-2.698-0.799-4.758-2.097-6.164
			c-0.084-0.091-0.172-0.179-0.26-0.265l-0.052,9.399c-0.226,1.236-0.626,2.164-1.203,2.775c-0.95,1.003-2.683,1.505-5.198,1.505
			H25.975v-4.215L8.085,33.272L25.975,45.042z"/>
	</g>
	<g>
		<defs>
			<rect id="SVGID_3_" x="7.176" y="10.873" width="46.096" height="35.094"/>
		</defs>
		<clipPath id="SVGID_4_">
			<use xlink:href="#SVGID_3_"  overflow="visible"/>
		</clipPath>
		<path clip-path="url(#SVGID_4_)" fill="none" stroke="#FFFFFF" d="M25.975,45.042v-4.166H44.25c2.856,0,4.992-0.765,6.403-2.295
			c1.298-1.406,1.99-3.467,2.097-6.164h0.021v-0.725V19.193v-0.724H52.75c-0.105-2.698-0.799-4.758-2.097-6.164
			c-0.084-0.091-0.172-0.179-0.26-0.265l-0.052,9.399c-0.226,1.236-0.626,2.164-1.203,2.775c-0.95,1.003-2.683,1.505-5.198,1.505
			H25.975v-4.215L8.085,33.272L25.975,45.042z"/>
	</g>
</g>
</svg>
