<?xml version="1.0" encoding="utf-8"?>
<!-- Generator: Adobe Illustrator 16.2.0, SVG Export Plug-In . SVG Version: 6.00 Build 0)  -->
<!DOCTYPE svg PUBLIC "-//W3C//DTD SVG 1.1//EN" "http://www.w3.org/Graphics/SVG/1.1/DTD/svg11.dtd">
<svg version="1.1" id="Layer_1" xmlns="http://www.w3.org/2000/svg" xmlns:xlink="http://www.w3.org/1999/xlink" x="0px" y="0px"
	 width="51.809px" height="47.447px" viewBox="0 0 51.809 47.447" enable-background="new 0 0 51.809 47.447" xml:space="preserve">
<g>
	<path fill="#FFFFFF" d="M22,32.166c-6.8,0-12.333-5.533-12.333-12.333S15.2,7.5,22,7.5s12.333,5.533,12.333,12.333
		S28.801,32.166,22,32.166z M22,10.5c-5.146,0-9.333,4.187-9.333,9.333s4.187,9.333,9.333,9.333s9.333-4.187,9.333-9.333
		S27.146,10.5,22,10.5z"/>
</g>
<g>
	<g>
		<path fill="#FFFFFF" d="M38.94,38.894l-7.167-7.167c-0.586-0.585-0.586-1.536,0-2.121c0.586-0.586,1.535-0.586,2.121,0
			l7.167,7.167L38.94,38.894z"/>
	</g>
</g>
</svg>
