<?xml version="1.0" encoding="utf-8"?>
<!-- Generator: Adobe Illustrator 16.2.0, SVG Export Plug-In . SVG Version: 6.00 Build 0)  -->
<!DOCTYPE svg PUBLIC "-//W3C//DTD SVG 1.1//EN" "http://www.w3.org/Graphics/SVG/1.1/DTD/svg11.dtd">
<svg version="1.1" id="Layer_1" xmlns="http://www.w3.org/2000/svg" xmlns:xlink="http://www.w3.org/1999/xlink" x="0px" y="0px"
	 width="63px" height="63.433px" viewBox="0 0 63 63.433" enable-background="new 0 0 63 63.433" xml:space="preserve">
<circle fill="#444444" stroke="#E5E5E5" stroke-miterlimit="10" cx="31.489" cy="30.851" r="26.242"/>
<g>
	<g>
		<g>
			<path fill="#EFEFEF" d="M44.692,35.277c0.14-0.323,0.536-0.511,0.986-0.387l6.388,1.814c0.434,0.119,0.707,0.676,0.497,1.208
				c-0.194,0.538-0.701,0.835-1.127,0.667l-6.191-2.4C44.819,36.01,44.569,35.605,44.692,35.277z"/>
		</g>
		<g>
			<path fill="#EFEFEF" d="M42.209,39.75c0.216-0.278,0.678-0.29,1.048-0.015l5.296,4.005c0.366,0.271,0.394,0.87,0.039,1.315
				c-0.38,0.425-0.964,0.514-1.3,0.203l-4.906-4.475C42.05,40.472,41.969,40.007,42.209,39.75z"/>
		</g>
		<g>
			<path fill="#EFEFEF" d="M38.264,43.022c0.299-0.186,0.741-0.018,0.986,0.369l3.5,5.642c0.245,0.388,0.048,0.943-0.441,1.236
				c-0.492,0.289-1.087,0.131-1.284-0.272l-2.964-5.942C37.856,43.635,37.963,43.204,38.264,43.022z"/>
		</g>
		<g>
			<path fill="#EFEFEF" d="M33.417,44.633c0.347-0.055,0.7,0.271,0.788,0.721l1.213,6.528c0.088,0.45-0.298,0.888-0.863,0.973
				c-0.564,0.092-1.055-0.229-1.094-0.697l-0.605-6.612C32.818,45.1,33.071,44.695,33.417,44.633z"/>
		</g>
		<g>
			<path fill="#EFEFEF" d="M28.299,44.401c0.336,0.104,0.555,0.503,0.475,0.953l-1.213,6.528c-0.081,0.453-0.604,0.755-1.156,0.601
				c-0.555-0.14-0.898-0.615-0.77-1.055l1.814-6.388C27.579,44.601,27.959,44.312,28.299,44.401z"/>
		</g>
		<g>
			<path fill="#EFEFEF" d="M23.62,42.346c0.29,0.199,0.351,0.648,0.109,1.045l-3.5,5.642c-0.235,0.387-0.834,0.479-1.305,0.156
				c-0.459-0.338-0.603-0.911-0.323-1.274l4.005-5.296C22.885,42.256,23.34,42.132,23.62,42.346z"/>
		</g>
		<g>
			<path fill="#EFEFEF" d="M19.994,38.721c0.214,0.279,0.09,0.735-0.273,1.015l-5.296,4.005c-0.363,0.28-0.936,0.136-1.274-0.323
				c-0.323-0.47-0.23-1.069,0.156-1.305l5.642-3.5C19.346,38.37,19.795,38.431,19.994,38.721z"/>
		</g>
		<g>
			<path fill="#EFEFEF" d="M17.939,34.042c0.089,0.339-0.199,0.72-0.639,0.849l-6.388,1.814c-0.439,0.129-0.915-0.215-1.055-0.77
				c-0.155-0.551,0.147-1.075,0.601-1.155l6.528-1.213C17.436,33.487,17.834,33.706,17.939,34.042z"/>
		</g>
		<g>
			<path fill="#EFEFEF" d="M17.707,28.924c-0.062,0.346-0.466,0.598-0.912,0.562l-6.612-0.605c-0.468-0.039-0.789-0.529-0.697-1.094
				c0.085-0.565,0.523-0.951,0.973-0.864l6.528,1.213C17.437,28.224,17.762,28.577,17.707,28.924z"/>
		</g>
		<g>
			<path fill="#EFEFEF" d="M19.318,24.077c-0.182,0.301-0.613,0.408-1.033,0.202l-5.942-2.964c-0.404-0.197-0.562-0.792-0.272-1.284
				c0.293-0.49,0.849-0.687,1.236-0.441l5.642,3.5C19.337,23.335,19.504,23.778,19.318,24.077z"/>
		</g>
		<g>
			<path fill="#EFEFEF" d="M22.59,20.131c-0.257,0.241-0.722,0.159-1.034-0.177l-4.475-4.906c-0.312-0.336-0.223-0.92,0.203-1.3
				c0.445-0.355,1.043-0.327,1.315,0.039l4.005,5.296C22.88,19.453,22.868,19.915,22.59,20.131z"/>
		</g>
		<g>
			<path fill="#EFEFEF" d="M27.063,17.648c-0.328,0.124-0.733-0.126-0.902-0.552l-2.4-6.191c-0.169-0.426,0.128-0.933,0.667-1.127
				c0.533-0.21,1.09,0.063,1.208,0.497l1.814,6.388C27.574,17.112,27.387,17.508,27.063,17.648z"/>
		</g>
		<g>
			<path fill="#EFEFEF" d="M31.89,16.954c-0.353-0.019-0.89-0.41-0.89-0.868v-6.64c0-0.458,0.699-0.812,1.268-0.784
				c0.569,0.028,1.116,0.426,1.07,0.882l-0.667,6.612C32.626,16.612,32.242,16.972,31.89,16.954z"/>
		</g>
		<g>
			<path fill="#EFEFEF" d="M37.113,18.109c-0.311-0.167-0.462-0.573-0.295-1.014l2.4-6.191c0.157-0.417,0.74-0.642,1.251-0.387
				c0.516,0.245,0.764,0.779,0.556,1.187l-2.964,5.942C37.854,18.055,37.427,18.265,37.113,18.109z"/>
		</g>
		<g>
			<path fill="#EFEFEF" d="M41.343,20.998c-0.264-0.233-0.227-0.702,0.079-1.043l4.475-4.906c0.306-0.341,0.897-0.307,1.315,0.08
				c0.387,0.418,0.421,1.009,0.08,1.315l-4.906,4.475C42.045,21.225,41.576,21.262,41.343,20.998z"/>
		</g>
		<g>
			<path fill="#EFEFEF" d="M44.231,25.228c-0.155-0.314,0.054-0.741,0.462-0.949l5.942-2.964c0.408-0.208,0.942,0.04,1.187,0.556
				c0.255,0.512,0.03,1.095-0.387,1.251l-6.191,2.4C44.804,25.69,44.398,25.538,44.231,25.228z"/>
		</g>
		<g>
			<path fill="#EFEFEF" d="M45.386,30.28c-0.018-0.352,0.342-0.712,0.797-0.758l6.612-0.624c0.456-0.046,0.854,0.444,0.882,1.013
				C53.706,30.48,53.353,31,52.894,31h-6.64C45.796,31,45.405,30.633,45.386,30.28z"/>
		</g>
	</g>
</g>
</svg>
