<?xml version="1.0" encoding="utf-8"?>
<!-- Generator: Adobe Illustrator 16.2.0, SVG Export Plug-In . SVG Version: 6.00 Build 0)  -->
<!DOCTYPE svg PUBLIC "-//W3C//DTD SVG 1.1//EN" "http://www.w3.org/Graphics/SVG/1.1/DTD/svg11.dtd">
<svg version="1.1" id="Layer_1" xmlns="http://www.w3.org/2000/svg" xmlns:xlink="http://www.w3.org/1999/xlink" x="0px" y="0px"
	 width="32.932px" height="32.932px" viewBox="0 0 32.932 32.932" enable-background="new 0 0 32.932 32.932" xml:space="preserve">
<g>
	<rect x="554.966" y="415.966" fill="#FFFFFF" width="4" height="11"/>
	<rect x="560.966" y="415.966" fill="#FFFFFF" width="4" height="11"/>
</g>
<g>
	<g>
		<polygon fill="#FFFFFF" points="10.966,12.966 10.966,17.966 13,17.966 16.966,21.083 16.966,10 14,12.966 		"/>
	</g>
	<g>
		<path fill="#FFFFFF" d="M18.128,17.602c-0.207,0-0.4-0.129-0.473-0.336c-0.091-0.261,0.048-0.546,0.309-0.637
			c0.388-0.135,0.648-0.521,0.648-0.96c0-0.42-0.244-0.799-0.608-0.945c-0.257-0.103-0.381-0.394-0.278-0.649
			c0.103-0.257,0.396-0.382,0.649-0.278c0.74,0.296,1.237,1.049,1.237,1.873c0,0.864-0.53,1.63-1.32,1.905
			C18.239,17.594,18.183,17.602,18.128,17.602z"/>
	</g>
	<g>
		<path fill="#FFFFFF" d="M20.11,19.244c-0.137,0-0.272-0.056-0.371-0.165c-0.185-0.204-0.169-0.521,0.036-0.706
			C20.565,17.658,21,16.712,21,15.709c0-1.144-0.571-2.216-1.567-2.94c-0.224-0.162-0.272-0.476-0.11-0.698
			c0.162-0.224,0.476-0.271,0.698-0.11C21.279,12.875,22,14.241,22,15.709c0,1.289-0.553,2.499-1.556,3.406
			C20.349,19.201,20.23,19.244,20.11,19.244z"/>
	</g>
</g>
</svg>
